<svg width="143" height="186" viewBox="0 0 143 186" fill="none" xmlns="http://www.w3.org/2000/svg">
<g filter="url(#filter0_d)">
<path d="M117.77 158.455C117.77 152.394 105.541 149.97 105.541 160.879C105.541 171.788 114.101 173 117.77 173C121.439 173 130 170.576 130 158.455C130 150.845 130 92.9784 130 46.9394M13 13H96.0606C114.805 13 130 28.1952 130 46.9394V46.9394M130 46.9394C130 66.9859 118.881 76.9302 103.095 79.1705M88.5 52.5C92.1689 56.1364 100.5 52.5 100.5 44C100.5 37.9394 96.9797 32.3939 85.973 32.3939C76.2402 32.3939 69.3762 38.0805 67.9176 46.9394M67.9176 46.9394C67.7267 48.099 67.6284 49.313 67.6284 50.5758C67.6284 61.4849 76.1892 79.6667 95.7568 79.6667C98.2919 79.6667 100.745 79.5039 103.095 79.1705M67.9176 46.9394C69.0442 41.6869 70.3189 29.2424 66.4054 21.4848C61.5135 11.7879 47.8919 13.4394 43 19.5C38.1081 25.5606 39.8851 37.0758 46 39.5C52.1149 41.9242 59.0676 34.8182 52.9527 28.7576M103.095 79.1705C107.171 78.5278 116.547 78.697 121.439 84.5152C127.554 91.7879 128.399 108.076 112.5 110.5C96.6014 112.924 95.7568 91.7879 106.764 91.7879C117.77 91.7879 114.101 102.697 110.432 100.273" stroke="url(#paint0_linear)" stroke-width="6" stroke-linecap="round"/>
</g>
<defs>
<filter id="filter0_d" x="0" y="0" width="143" height="186" filterUnits="userSpaceOnUse" color-interpolation-filters="sRGB">
<feFlood flood-opacity="0" result="BackgroundImageFix"/>
<feColorMatrix in="SourceAlpha" type="matrix" values="0 0 0 0 0 0 0 0 0 0 0 0 0 0 0 0 0 0 127 0"/>
<feOffset/>
<feGaussianBlur stdDeviation="5"/>
<feColorMatrix type="matrix" values="0 0 0 0 1 0 0 0 0 0.964706 0 0 0 0 0.529412 0 0 0 0.25 0"/>
<feBlend mode="normal" in2="BackgroundImageFix" result="effect1_dropShadow"/>
<feBlend mode="normal" in="SourceGraphic" in2="effect1_dropShadow" result="shape"/>
</filter>
<linearGradient id="paint0_linear" x1="-51.0001" y1="13" x2="107.791" y2="192.632" gradientUnits="userSpaceOnUse">
<stop stop-color="#FFC700"/>
<stop offset="1" stop-color="#936900"/>
</linearGradient>
</defs>
</svg>
