<svg width="1455" height="129" viewBox="0 0 1455 129" fill="none" xmlns="http://www.w3.org/2000/svg">
<path d="M81 50C53.8 27.2 15.6667 55 0 55.5V128.535H1454.5V38.0347C1454.5 10.8625 1415.83 16.3796 1396.5 22.5347C1366 36.5347 1356 45 1331 45C1306 45 1285.5 22.5347 1261 22.5347C1236.5 22.5347 1238.5 -5.46529 1220 1.53471C1201.5 8.53471 1225 29.5 1184 55.5C1143 81.5 1038 25.5 980.5 29C940.259 31.4495 976.5 77.5 931 77.5C885.5 77.5 861 1 771.5 29C763.5 31.5028 764 38.5 731 37.5C698 36.5 673 59.5 642.5 59.5C612 59.5 586 84.5 534.5 84.5C483 84.5 482.819 68.7375 470.5 66C452.5 62 422 30.5 357.5 30.5C293 30.5 271.5 84.5 242 84.5C212.5 84.5 208 67.5 144.5 66C81 64.5 115 78.5 81 50Z" fill="#171717"/>
</svg>
